<?xml version="1.0" standalone="no"?><!DOCTYPE svg PUBLIC "-//W3C//DTD SVG 1.1//EN" "http://www.w3.org/Graphics/SVG/1.1/DTD/svg11.dtd"><svg t="1607484551056" class="icon" viewBox="0 0 1024 1024" version="1.1" xmlns="http://www.w3.org/2000/svg" p-id="3154" xmlns:xlink="http://www.w3.org/1999/xlink" width="200" height="200"><defs><style type="text/css"></style></defs><path d="M47.86028 107.588411l112.261052 0 0 112.20272-112.261052 0 0-112.20272Z" p-id="3155"></path><path d="M280.044244 107.588411l696.088312 0 0 112.20272-696.088312 0 0-112.20272Z" p-id="3156"></path><path d="M47.86028 339.772375l112.261052 0 0 112.20272-112.261052 0 0-112.20272Z" p-id="3157"></path><path d="M280.044244 339.772375l696.088312 0 0 112.20272-696.088312 0 0-112.20272Z" p-id="3158"></path><path d="M47.86028 571.95634l112.261052 0 0 112.20272-112.261052 0 0-112.20272Z" p-id="3159"></path><path d="M280.044244 571.95634l696.088312 0 0 112.20272-696.088312 0 0-112.20272Z" p-id="3160"></path><path d="M47.86028 804.140304l112.261052 0 0 112.20272-112.261052 0 0-112.20272Z" p-id="3161"></path><path d="M280.044244 804.140304l696.088312 0 0 112.20272-696.088312 0 0-112.20272Z" p-id="3162"></path></svg>