<?xml version="1.0" standalone="no"?><!DOCTYPE svg PUBLIC "-//W3C//DTD SVG 1.1//EN" "http://www.w3.org/Graphics/SVG/1.1/DTD/svg11.dtd"><svg t="1607772851870" class="icon" viewBox="0 0 1025 1024" version="1.1" xmlns="http://www.w3.org/2000/svg" p-id="3834" xmlns:xlink="http://www.w3.org/1999/xlink" width="200.1953125" height="200"><defs><style type="text/css"></style></defs><path d="M1017.6 440c-6.4-22.4-25.6-44.8-48-51.2l-16-3.2c-38.4-12.8-72-38.4-94.4-72-22.4-38.4-25.6-78.4-19.2-123.2l6.4-16c6.4-22.4-3.2-51.2-19.2-65.6 0 0-16-12.8-59.2-38.4-41.6-25.6-62.4-32-62.4-32-22.4-6.4-51.2 0-65.6 16l-14.4 12.8C598.4 92.8 556.8 112 512 112c-41.6 0-81.6-19.2-113.6-44.8l-12.8-12.8c-16-16-44.8-25.6-65.6-16 0 0-19.2 6.4-62.4 32-41.6 25.6-59.2 38.4-59.2 38.4C177.6 128 171.2 155.2 177.6 180.8l6.4 16c9.6 38.4 6.4 81.6-19.2 123.2-22.4 38.4-56 62.4-94.4 72l-19.2 3.2c-22.4 6.4-41.6 25.6-48 51.2 0 0-3.2 22.4-3.2 72 0 51.2 3.2 72 3.2 72 6.4 22.4 25.6 44.8 48 51.2l16 3.2c38.4 12.8 72 38.4 94.4 72 22.4 38.4 25.6 78.4 19.2 123.2l-3.2 9.6c-6.4 22.4 3.2 51.2 19.2 65.6 0 0 16 12.8 59.2 38.4 41.6 25.6 62.4 32 62.4 32 22.4 6.4 51.2 0 65.6-16l12.8-12.8c28.8-25.6 68.8-44.8 113.6-44.8 41.6 0 81.6 19.2 113.6 44.8l12.8 12.8c16 16 44.8 25.6 65.6 16 0 0 19.2-6.4 62.4-32 41.6-25.6 59.2-38.4 59.2-38.4 19.2-16 25.6-44.8 19.2-65.6l-6.4-22.4c-9.6-38.4-6.4-81.6 19.2-120 22.4-38.4 56-62.4 94.4-72l16-3.2c22.4-6.4 41.6-25.6 48-51.2 0 0 3.2-22.4 3.2-72 6.4-48 0-68.8 0-68.8zM515.2 678.4c-91.2 0-166.4-72-166.4-166.4s72-166.4 166.4-166.4c91.2 0 166.4 72 166.4 166.4s-75.2 166.4-166.4 166.4z" p-id="3835"></path></svg>